
<svg width="16px" height="16px" viewBox="0 0 16 16" version="1.1" xmlns="http://www.w3.org/2000/svg" xmlns:xlink="http://www.w3.org/1999/xlink">
    <!-- Generator: Sketch 40 (33762) - http://www.bohemiancoding.com/sketch -->
    <desc>Created with Sketch.</desc>
    <defs></defs>
    <path d="M0,0 L16,0 L16,16 L0,16 L0,0 Z M4.14885417,5.01328125 L5.62828125,6.89895833 L4.80901042,6.89895833 L3.73244792,5.87994792 L2.65927083,6.89895833 L1.84,6.89895833 L3.31942708,5.01328125 L4.14885417,5.01328125 Z M9.38609375,10.5518229 L9.38609375,11.1984375 L8.87828125,11.1984375 C8.31629927,11.1984375 7.93995755,11.1149314 7.74924479,10.9479167 C7.55853203,10.7809019 7.46317708,10.448006 7.46317708,9.94921875 L7.46317708,9.22135417 C7.46317708,8.88055385 7.40280442,8.64526975 7.28205729,8.51549479 C7.16131016,8.38571984 6.94295297,8.32083333 6.62697917,8.32083333 L6.41708333,8.32083333 L6.41708333,7.67421875 L6.62697917,7.67421875 C6.94295297,7.67421875 7.16131016,7.60989648 7.28205729,7.48125 C7.40280442,7.35260352 7.46317708,7.11675519 7.46317708,6.77369792 L7.46317708,6.04583333 C7.46317708,5.54704612 7.55853203,5.21471437 7.74924479,5.04882813 C7.93995755,4.88294188 8.31629927,4.8 8.87828125,4.8 L9.38609375,4.8 L9.38609375,5.44322917 L8.9696875,5.44322917 C8.7349641,5.44322917 8.57810803,5.49062453 8.49911458,5.58541667 C8.42012113,5.68020881 8.380625,5.88897408 8.380625,6.21171875 L8.380625,6.91927083 C8.380625,7.29166853 8.32533041,7.55347147 8.21473958,7.7046875 C8.10414875,7.85590353 7.90666809,7.95295117 7.62229167,7.99583333 C7.90666809,8.0432294 8.10414875,8.14366243 8.21473958,8.29713542 C8.32533041,8.45060841 8.380625,8.71241134 8.380625,9.08255208 L8.380625,9.7765625 C8.380625,10.1015641 8.42012113,10.3120221 8.49911458,10.4079427 C8.57810803,10.5038633 8.7349641,10.5518229 8.9696875,10.5518229 L9.38609375,10.5518229 Z M10.6048438,10.5518229 L11.0144792,10.5518229 C11.2492026,10.5518229 11.4071871,10.5032991 11.4884375,10.40625 C11.5696879,10.3092009 11.6103125,10.0993072 11.6103125,9.7765625 L11.6103125,9.08255208 C11.6103125,8.71241134 11.6656071,8.45060841 11.7761979,8.29713542 C11.8867887,8.14366243 12.083141,8.0432294 12.3652604,7.99583333 C12.080884,7.95295117 11.8839676,7.85590353 11.7745052,7.7046875 C11.6650429,7.55347147 11.6103125,7.29166853 11.6103125,6.91927083 L11.6103125,6.21171875 C11.6103125,5.89348799 11.5702521,5.68585118 11.4901302,5.58880208 C11.4100083,5.49175299 11.2514595,5.44322917 11.0144792,5.44322917 L10.6048438,5.44322917 L10.6048438,4.8 L11.1126563,4.8 C11.6723813,4.8 12.0464661,4.88294188 12.2349219,5.04882813 C12.4233777,5.21471437 12.5176042,5.54704612 12.5176042,6.04583333 L12.5176042,6.77369792 C12.5176042,7.11449823 12.5791053,7.34978234 12.7021094,7.47955729 C12.8251135,7.60933225 13.0457276,7.67421875 13.3639583,7.67421875 L13.5738542,7.67421875 L13.5738542,8.32083333 L13.3639583,8.32083333 C13.0457276,8.32083333 12.8251135,8.38628407 12.7021094,8.5171875 C12.5791053,8.64809093 12.5176042,8.88281081 12.5176042,9.22135417 L12.5176042,9.94921875 C12.5176042,10.448006 12.4233777,10.7809019 12.2349219,10.9479167 C12.0464661,11.1149314 11.6723813,11.1984375 11.1126563,11.1984375 L10.6048438,11.1984375 L10.6048438,10.5518229 Z" id="Combined-Shape" stroke="none" fill="#000000" fill-rule="evenodd"></path>
</svg>